<svg width="58" height="60" viewBox="0 0 58 60" fill="none" xmlns="http://www.w3.org/2000/svg">
<path d="M25.368 56.64C22.68 50.0267 19.8427 42.56 16.856 34.24C13.912 25.8773 10.9467 17.1307 7.96 8C10.5627 7.53066 12.952 7.21066 15.128 7.04C17.3467 6.82666 19.5227 6.72 21.656 6.72C22.6373 10.56 23.6613 14.5067 24.728 18.56C25.8373 22.6133 26.9467 26.56 28.056 30.4C29.208 34.24 30.296 37.7813 31.32 41.024C32.344 44.2667 33.24 46.976 34.008 49.152C34.9467 46.592 36.0773 43.1573 37.4 38.848C38.7227 34.5387 40.152 29.6533 41.688 24.192C43.224 18.7307 44.7813 12.992 46.36 6.976L54.04 7.488C51.6933 15.6373 49.0267 23.8507 46.04 32.128C43.096 40.3627 39.96 48.32 36.632 56L25.368 56.64Z" fill="black"/>
<path fill-rule="evenodd" clip-rule="evenodd" d="M6.34483 3.74279C6.34483 3.35377 6.61546 3.01965 6.98953 2.94686L22.0585 0.0145632C22.5472 -0.0805402 23 0.302223 23 0.810493V22.5181C23 24.7555 21.2246 26.5693 19.0345 26.5693C16.8444 26.5693 15.069 24.7555 15.069 22.5181C15.069 20.2807 16.8444 18.4669 19.0345 18.4669C19.9272 18.4669 20.751 18.7682 21.4138 19.2768V6.62194L7.93103 9.24557V24.9488C7.93103 27.1862 6.15561 29 3.96552 29C1.77542 29 0 27.1862 0 24.9488C0 22.7114 1.77542 20.8976 3.96552 20.8976C4.85824 20.8976 5.68206 21.199 6.34483 21.7075V3.74279ZM7.93103 4.41327L21.4138 1.78963V4.97232L7.93103 7.59596V4.41327ZM19.0345 20.0874C20.3485 20.0874 21.4138 21.1756 21.4138 22.5181C21.4138 23.8605 20.3485 24.9488 19.0345 24.9488C17.7204 24.9488 16.6552 23.8605 16.6552 22.5181C16.6552 21.1756 17.7204 20.0874 19.0345 20.0874ZM6.34483 24.9488C6.34483 23.6064 5.27957 22.5181 3.96552 22.5181C2.65146 22.5181 1.58621 23.6064 1.58621 24.9488C1.58621 26.2912 2.65146 27.3795 3.96552 27.3795C5.27957 27.3795 6.34483 26.2912 6.34483 24.9488Z" fill="#04C73E"/>
<path d="M42.2399 29.2166C42.1527 29.3909 41.9771 29.9164 41.6593 31.241C41.4473 32.1243 41.2325 33.4587 41.1091 34.2631C40.8989 35.6328 40.9196 36.0359 40.9196 36.2135C40.9196 36.9831 41.1823 34.7883 41.4906 34.0053C41.7045 33.462 41.8438 33.0692 41.9095 32.7167C41.9822 32.3266 42.1739 31.6856 42.2613 31.1548C42.3711 30.4885 42.6571 29.989 42.7564 29.4173C42.9086 28.5415 43.1416 28.1842 43.2189 27.4389C43.4075 25.6184 43.3397 25.0828 43.4387 24.4884C43.5998 23.5211 43.6698 23.1671 43.7031 22.8037C43.7122 22.7041 43.7358 22.5954 43.7034 22.5066C43.6711 22.4178 43.5839 22.3525 43.4955 22.3515C43.1169 22.3472 43.0545 22.9215 42.9773 23.2958C42.8835 23.7502 42.8565 24.1098 42.7683 24.4732C42.6608 24.9164 42.6584 25.364 42.6251 26.1001C42.6053 26.5375 42.4604 26.9259 42.427 27.4105C42.399 27.8184 42.1963 28.2462 42.163 29.2239C42.1466 29.7028 42.0207 30.0511 41.8553 30.5679C41.7257 30.9733 41.6022 31.3713 41.5141 31.7239C41.4919 31.8123 41.4702 31.8995 41.4589 31.8027C41.3714 31.0483 41.6669 30.6927 41.8431 30.3402C42.0155 29.9954 42.2174 29.6154 42.426 29.1084C42.5103 28.9036 42.5917 28.7334 42.5812 28.5905C42.5764 28.5262 42.4617 28.5129 42.3841 28.5344C42.0615 28.6236 42.0207 29.1269 41.8992 29.5012C41.7412 29.988 41.515 30.3811 41.3163 30.7884C41.1348 31.1607 40.942 31.5034 40.7443 31.8559C40.5501 32.2022 40.5235 32.6256 40.3482 32.9342C40.1346 33.3104 40.0627 33.7914 39.8749 34.1664C39.7109 34.4939 39.6878 34.8701 39.5448 35.2774C39.5115 35.3771 39.4897 35.4642 39.4785 35.923C39.4673 36.3818 39.4673 37.2097 39.5333 38.0626" stroke="black" stroke-width="2" stroke-linecap="round"/>
<path d="M39.8592 35.9736C39.8767 35.953 39.9117 35.8956 39.9843 35.7752C40.0148 35.7246 40.0332 35.6943 40.0452 35.6671C40.0578 35.6385 40.0556 35.5795 40.0517 35.5417C40.0485 35.5122 40.0429 35.4803 40.0405 35.4435C40.0385 35.4142 40.0317 35.3828 40.0206 35.3524C40.0043 35.3081 39.9696 35.2727 39.9328 35.2326C39.919 35.2177 39.9071 35.207 39.8999 35.1888C39.8756 35.127 39.9181 35.0715 39.935 35.021C39.9414 35.0018 39.9406 34.9755 39.9383 34.9492C39.9355 34.9184 39.8913 34.8989 39.8688 34.8701C39.8459 34.8407 39.8433 34.811 39.8392 34.7798C39.8345 34.7437 39.8273 34.712 39.8113 34.6816C39.8018 34.6704 39.7921 34.6608 39.781 34.6512C39.7746 34.6464 39.7667 34.6416 39.7585 34.632" stroke="black" stroke-width="2" stroke-linecap="round"/>
<path d="M51 8.22835L36.53 58L32 56.7726L46.47 7L51 8.22835Z" fill="#04C73E"/>
<rect x="49.9529" y="8" width="4.53656" height="51.6213" transform="rotate(15.6818 49.9529 8)" fill="#04C73E"/>
<rect x="46.3643" y="9.33823" width="2.35364" height="7.9727" transform="rotate(-90.4889 46.3643 9.33823)" fill="#04C73E"/>
<rect x="25.2515" y="59.0964" width="2.90719" height="15.0891" transform="rotate(-90.4889 25.2515 59.0964)" fill="#04C73E"/>
<path fill-rule="evenodd" clip-rule="evenodd" d="M26.3448 18.7428C26.3448 18.3538 26.6155 18.0197 26.9895 17.9469L42.0585 15.0146C42.5472 14.9195 43 15.3022 43 15.8105V37.5181C43 39.7555 41.2246 41.5693 39.0345 41.5693C36.8444 41.5693 35.069 39.7555 35.069 37.5181C35.069 35.2807 36.8444 33.4669 39.0345 33.4669C39.9272 33.4669 40.751 33.7682 41.4138 34.2768V21.6219L27.931 24.2456V39.9488C27.931 42.1862 26.1556 44 23.9655 44C21.7754 44 20 42.1862 20 39.9488C20 37.7114 21.7754 35.8976 23.9655 35.8976C24.8582 35.8976 25.6821 36.199 26.3448 36.7075V18.7428ZM27.931 19.4133L41.4138 16.7896V19.9723L27.931 22.596V19.4133ZM39.0345 35.0874C40.3485 35.0874 41.4138 36.1756 41.4138 37.5181C41.4138 38.8605 40.3485 39.9488 39.0345 39.9488C37.7204 39.9488 36.6552 38.8605 36.6552 37.5181C36.6552 36.1756 37.7204 35.0874 39.0345 35.0874ZM26.3448 39.9488C26.3448 38.6064 25.2796 37.5181 23.9655 37.5181C22.6515 37.5181 21.5862 38.6064 21.5862 39.9488C21.5862 41.2912 22.6515 42.3795 23.9655 42.3795C25.2796 42.3795 26.3448 41.2912 26.3448 39.9488Z" fill="black"/>
</svg>
